<svg width="40" height="40" viewBox="0 0 40 40" fill="none" xmlns="http://www.w3.org/2000/svg">
<path d="M24.76 5.02352L24.704 4.98962L24.6921 4.98168C24.6706 4.96741 24.6402 4.94735 24.6015 4.92232C24.5242 4.87229 24.4139 4.80222 24.2769 4.71878C24.0037 4.55245 23.6197 4.33019 23.1764 4.10689C22.3354 3.68333 21.1111 3.16667 20 3.16667C18.8889 3.16667 17.6646 3.68333 16.8236 4.10689C16.3803 4.33019 15.9963 4.55245 15.7231 4.71878C15.5861 4.80222 15.4758 4.87229 15.3985 4.92232C15.3598 4.94735 15.3294 4.96741 15.3079 4.98168L15.296 4.98962L15.24 5.02352L15.0208 5.15611C14.8301 5.27157 14.5531 5.43941 14.2077 5.64903C13.517 6.06827 12.5525 6.65475 11.4577 7.3238C9.26941 8.6611 6.5554 10.3312 4.46495 11.6552C3.76488 12.0986 3.24245 12.7857 2.8988 13.4545C2.55662 14.1204 2.33333 14.8817 2.33333 15.5556L2.33333 18.1944L2.33333 34.0278C2.33333 34.9917 2.51203 35.9463 3.33903 36.7319C4.16241 37.5142 5.25893 37.6667 6.11111 37.6667H33.8889C34.8208 37.6667 35.7691 37.5792 36.661 36.7319C37.5786 35.8602 37.6667 34.7531 37.6667 34.0278V18.1944V15.5556C37.6667 14.8883 37.4427 14.1271 37.1018 13.4615C36.7594 12.7928 36.2372 12.0999 35.5351 11.6552C33.4446 10.3312 30.7306 8.6611 28.5423 7.3238C27.4475 6.65475 26.483 6.06827 25.7923 5.64903C25.4469 5.43941 25.1699 5.27157 24.9792 5.15611L24.76 5.02352ZM24.4981 2.53173L24.5092 2.53836L24.5795 2.58063L24.8516 2.74448C25.0886 2.88733 25.433 3.09524 25.8619 3.3552C26.7198 3.87515 27.9158 4.60311 29.2676 5.43499C31.9743 7.10068 35.2946 9.17606 37.7786 10.8321C38.6339 11.4023 39 12.383 39 13.3333V16.6667V35C39 35.0488 38.9802 35.1958 38.8944 35.4505C38.8139 35.6889 38.6948 35.9656 38.5488 36.2517C38.2476 36.842 37.887 37.3654 37.6262 37.6262C37.347 37.9055 36.8568 38.2665 36.3109 38.5562C35.7414 38.8585 35.2664 39 35 39H5C4.93044 39 4.76867 38.9758 4.50919 38.886C4.26349 38.8011 3.98378 38.6763 3.69808 38.5259C3.1082 38.2153 2.60107 37.8535 2.37377 37.6262C2.13325 37.3857 1.77078 36.9013 1.46883 36.3431C1.15314 35.7594 1 35.2709 1 35V16.6667V13.3333C1 12.3663 1.36434 11.4034 2.22137 10.8321C4.70535 9.17606 8.02569 7.10068 10.7324 5.43499C12.0842 4.60311 13.2802 3.87515 14.1381 3.3552C14.567 3.09524 14.9114 2.88733 15.1484 2.74448L15.4205 2.58063L15.4908 2.53836L15.5019 2.53173L15.5179 2.52282C15.537 2.51227 15.5664 2.4961 15.6053 2.47511C15.6831 2.4331 15.7986 2.37195 15.9443 2.29803C16.2364 2.14979 16.6462 1.95226 17.1152 1.75541C18.09 1.34624 19.1833 1 20 1C20.8167 1 21.91 1.34624 22.8848 1.75541C23.3538 1.95226 23.7636 2.14979 24.0557 2.29803C24.2014 2.37195 24.3169 2.4331 24.3947 2.47511C24.4336 2.4961 24.463 2.51227 24.4821 2.52282L24.4981 2.53173Z" fill="#444444" stroke="#444444" stroke-width="2"/>
<path d="M11.7929 27.3739L11.7929 27.3739L11.7929 27.3739L11.7929 27.3739L11.7946 27.3755C12.2355 27.8165 12.9628 28.5438 14.2737 29.1397C15.5751 29.7312 17.3883 30.1669 20 30.1669C22.6117 30.1669 24.425 29.7312 25.7263 29.1397C27.0373 28.5438 27.7646 27.8165 28.2055 27.3756L28.2071 27.374L27.5119 26.6787L28.2071 27.374C28.214 27.3671 28.3068 27.2755 28.548 27.4202C28.7667 27.5514 29 27.8504 29 28.3335C29 28.8157 28.8108 29.1604 28.4108 29.4649C27.9669 29.8027 27.2709 30.0758 26.3383 30.2715C24.4748 30.6626 22.0874 30.6669 20 30.6669H19.9999C17.9125 30.6669 15.5251 30.6626 13.6617 30.2715C12.729 30.0758 12.0331 29.8027 11.5892 29.4649C11.1892 29.1604 11 28.8157 11 28.3335C11 27.8503 11.2333 27.5513 11.452 27.4201C11.6932 27.2754 11.7859 27.3669 11.7929 27.3739Z" fill="#444444" stroke="#444444" stroke-width="2"/>
<mask id="path-3-inside-1" fill="white">
<path d="M11.667 18.3333C11.667 19.1666 11.6632 19.7823 11.2071 19.842C10.0004 20 11.667 18.3333 9.16704 18.3333C6.66709 18.3333 8.33376 19.9999 7.12694 19.842C6.66709 19.7818 6.66709 18.7763 6.66709 18.3333C6.66709 16.6666 8.33376 16.6666 9.16704 16.6666C10.0003 16.6666 11.667 16.6666 11.667 18.3333Z"/>
</mask>
<path d="M11.667 18.3333C11.667 19.1666 11.6632 19.7823 11.2071 19.842C10.0004 20 11.667 18.3333 9.16704 18.3333C6.66709 18.3333 8.33376 19.9999 7.12694 19.842C6.66709 19.7818 6.66709 18.7763 6.66709 18.3333C6.66709 16.6666 8.33376 16.6666 9.16704 16.6666C10.0003 16.6666 11.667 16.6666 11.667 18.3333Z" fill="#325FFF"/>
<path d="M11.2071 19.842L10.9475 17.8589L11.2071 19.842ZM11.667 18.3333L9.66699 18.3332L9.66699 18.3333L11.667 18.3333ZM7.12694 19.842L6.86742 21.8251L7.12694 19.842ZM9.16704 18.3333L9.16704 20.3333L9.16704 20.3333L9.16704 18.3333ZM11.4668 21.825C12.0764 21.7452 12.6279 21.445 13.0218 20.9617C13.3652 20.5402 13.5 20.0885 13.5621 19.8042C13.6765 19.2798 13.667 18.667 13.667 18.3333L9.66699 18.3333C9.66699 18.5501 9.66643 18.7013 9.66108 18.8271C9.65549 18.9585 9.64707 18.9833 9.65408 18.9512C9.65816 18.9325 9.70649 18.698 9.92097 18.4348C10.0372 18.2922 10.1932 18.1527 10.3905 18.0437C10.5868 17.9352 10.7809 17.8807 10.9475 17.8589L11.4668 21.825ZM13.667 18.3333C13.667 17.5691 13.4698 16.8286 13.0149 16.1988C12.5691 15.5814 11.9866 15.2237 11.4723 15.018C10.5347 14.6429 9.51572 14.6666 9.16704 14.6666L9.16704 18.6666C9.38246 18.6666 9.5534 18.6678 9.71958 18.6836C9.88894 18.6998 9.96867 18.7247 9.98673 18.7319C9.99328 18.7345 9.87953 18.6893 9.7722 18.5407C9.72081 18.4695 9.69091 18.4011 9.67596 18.3506C9.66189 18.3031 9.66699 18.2917 9.66699 18.3332L13.667 18.3333ZM9.16704 14.6666C8.81835 14.6666 7.79938 14.643 6.86179 15.018C6.34751 15.2237 5.76502 15.5814 5.31917 16.1988C4.86426 16.8286 4.66709 17.5691 4.66709 18.3333L8.66709 18.3333C8.66709 18.2917 8.6722 18.3031 8.65813 18.3507C8.64318 18.4012 8.61328 18.4696 8.56189 18.5407C8.45458 18.6893 8.34084 18.7345 8.34739 18.7319C8.36544 18.7247 8.44516 18.6998 8.61452 18.6836C8.78069 18.6678 8.95163 18.6666 9.16704 18.6666L9.16704 14.6666ZM4.66709 18.3333C4.66709 18.5257 4.66176 19.0691 4.75721 19.591C4.80359 19.8446 4.90015 20.2552 5.13835 20.6591C5.39345 21.0917 5.93723 21.7033 6.86742 21.8251L7.38646 17.8589C7.70389 17.9004 7.9829 18.0287 8.20058 18.1974C8.40445 18.3555 8.52246 18.5231 8.58383 18.6272C8.6927 18.8118 8.70304 18.9321 8.69194 18.8714C8.67243 18.7647 8.66709 18.5839 8.66709 18.3333L4.66709 18.3333ZM6.86742 21.8251C7.1664 21.8642 7.67386 21.8943 8.21273 21.6749C8.8671 21.4084 9.26951 20.9025 9.46543 20.4025C9.61861 20.0116 9.63474 19.6451 9.64026 19.5498C9.64236 19.5136 9.64392 19.4796 9.645 19.4559C9.64623 19.4288 9.64691 19.4135 9.64773 19.3977C9.6493 19.3674 9.64992 19.3674 9.64838 19.3805C9.63748 19.4731 9.55261 19.9122 9.12985 20.2158C8.83728 20.4259 8.69328 20.3333 9.16704 20.3333L9.16704 16.3333C8.39083 16.3333 7.51768 16.449 6.79679 16.9667C5.94571 17.5778 5.73334 18.4237 5.67576 18.9133C5.66255 19.0256 5.65655 19.1241 5.65312 19.1901C5.64741 19.2999 5.65021 19.2623 5.64697 19.3183C5.64207 19.4029 5.64047 19.2001 5.74113 18.9432C5.88453 18.5773 6.19962 18.1757 6.70437 17.9701C6.90955 17.8866 7.08442 17.8622 7.19241 17.8552C7.29946 17.8483 7.36965 17.8567 7.38646 17.8589L6.86742 21.8251ZM9.16704 20.3333C9.64079 20.3333 9.49681 20.4259 9.20427 20.2158C8.78154 19.9123 8.69665 19.4732 8.68575 19.3805C8.68421 19.3675 8.68483 19.3675 8.6864 19.3978C8.68722 19.4136 8.6879 19.4288 8.68913 19.456C8.69021 19.4797 8.69177 19.5137 8.69387 19.5498C8.69939 19.6451 8.71552 20.0116 8.86868 20.4025C9.06458 20.9025 9.46697 21.4084 10.1214 21.6749C10.6603 21.8943 11.1678 21.8642 11.4668 21.825L10.9475 17.8589C10.9643 17.8567 11.0345 17.8483 11.1416 17.8552C11.2496 17.8622 11.4245 17.8866 11.6297 17.9701C12.1345 18.1757 12.4496 18.5773 12.593 18.9433C12.6937 19.2001 12.6921 19.4029 12.6872 19.3183C12.6839 19.2622 12.6867 19.2999 12.681 19.1901C12.6776 19.1241 12.6716 19.0255 12.6584 18.9132C12.6008 18.4236 12.3884 17.5778 11.5373 16.9667C10.8164 16.449 9.94327 16.3333 9.16704 16.3333L9.16704 20.3333Z" fill="#325FFF" mask="url(#path-3-inside-1)"/>
</svg>
