<svg width="16" height="16" viewBox="0 0 16 16" fill="none" xmlns="http://www.w3.org/2000/svg">
<g clip-path="url(#clip0)">
<path d="M11.3337 15V13.6667C11.3337 12.9594 11.0527 12.2811 10.5526 11.781C10.0525 11.281 9.37424 11 8.66699 11H3.33366C2.62641 11 1.94814 11.281 1.44804 11.781C0.947944 12.2811 0.666992 12.9594 0.666992 13.6667V15" stroke="#325FFF" stroke-width="1.5" stroke-linecap="round" stroke-linejoin="round"/>
<path d="M6 7C7.65685 7 9 5.65685 9 4C9 2.34315 7.65685 1 6 1C4.34315 1 3 2.34315 3 4C3 5.65685 4.34315 7 6 7Z" stroke="#325FFF" stroke-width="1.5" stroke-linecap="round" stroke-linejoin="round"/>
<path d="M15.333 15V13.6667C15.3326 13.0758 15.1359 12.5019 14.7739 12.0349C14.4119 11.5679 13.9051 11.2344 13.333 11.0867" stroke="#C4C4C4" stroke-width="1.33333" stroke-linecap="round" stroke-linejoin="round"/>
<path d="M10.667 2.08667C11.2406 2.23354 11.749 2.56714 12.1121 3.03488C12.4752 3.50262 12.6722 4.07789 12.6722 4.67C12.6722 5.26212 12.4752 5.83739 12.1121 6.30513C11.749 6.77287 11.2406 7.10647 10.667 7.25334" stroke="#C4C4C4" stroke-width="1.33333" stroke-linecap="round" stroke-linejoin="round"/>
</g>
<defs>
<clipPath id="clip0">
<rect width="16" height="16" fill="white"/>
</clipPath>
</defs>
</svg>
