<svg width="16" height="16" viewBox="0 0 16 16" fill="none" xmlns="http://www.w3.org/2000/svg">
<g clip-path="url(#clip0)">
<path fill-rule="evenodd" clip-rule="evenodd" d="M0.682991 6.40232C0.248961 6.78209 0 7.33075 0 7.90747V13.9999C0 15.1045 0.895431 15.9999 2 15.9999H14C15.1046 15.9999 16 15.1045 16 13.9999V7.90747C16 7.33075 15.751 6.78209 15.317 6.40232L9.31701 1.15232C8.56296 0.492523 7.43704 0.492521 6.68299 1.15232L0.682991 6.40232ZM2.46789 7.43715C2.17211 7.67439 2 8.03307 2 8.41224V12.7499C2 13.4403 2.55964 13.9999 3.25 13.9999H12.75C13.4404 13.9999 14 13.4403 14 12.7499V8.41224C14 8.03307 13.8279 7.67439 13.5321 7.43715L8.78211 3.62725C8.32512 3.26071 7.67488 3.26071 7.21789 3.62725L2.46789 7.43715Z" fill="#325FFF"/>
</g>
<defs>
<clipPath id="clip0">
<rect width="16" height="16" fill="white"/>
</clipPath>
</defs>
</svg>
