<svg width="16" height="16" viewBox="0 0 16 16" fill="none" xmlns="http://www.w3.org/2000/svg">
<path d="M2.79682 4.93095C2.29045 5.39972 2 6.07693 2 6.7888L4.29588 5.95754L8.08754 2.73993C8.62069 2.2875 9.37931 2.2875 9.91246 2.73993L13.7041 5.95754C14.0492 6.25038 14.25 6.6931 14.25 7.16113V10.6059C14.25 11.458 13.5971 12.1488 12.7917 12.1488L13.7041 14C14.9755 13.9788 16 12.8818 16 11.5317V6.7888C16 6.07693 15.7095 5.39972 15.2032 4.93095L10.5365 0.610803C9.65678 -0.203601 8.34322 -0.203601 7.46349 0.610803L2.79682 4.93095Z" fill="#325FFF"/>
<path fill-rule="evenodd" clip-rule="evenodd" d="M0.796823 6.93084C0.290454 7.3996 0 8.0768 0 8.78865V13.5314C0 14.8948 1.04467 16 2.33333 16H11.6667C12.9553 16 14 14.8948 14 13.5314V8.78865C14 8.0768 13.7095 7.3996 13.2032 6.93084L8.53651 2.61079C7.65678 1.7964 6.34322 1.7964 5.46349 2.61079L0.796823 6.93084ZM2.29588 7.95741C1.95079 8.25024 1.75 8.69295 1.75 9.16097V12.6057C1.75 13.4578 2.40292 14.1486 3.20833 14.1486H10.7917C11.5971 14.1486 12.25 13.4578 12.25 12.6057V9.16097C12.25 8.69295 12.0492 8.25024 11.7041 7.95741L7.91246 4.73987C7.37931 4.28745 6.62069 4.28745 6.08754 4.73987L2.29588 7.95741Z" fill="#C4C4C4"/>
<path d="M3.16877 10.4664C3.39379 10.2557 3.75862 10.2557 3.98365 10.4664L5.69881 12.0721C5.92383 12.2827 5.92383 12.6243 5.69881 12.8349C5.47378 13.0456 5.10895 13.0456 4.88393 12.8349L3.16877 11.2292C2.94374 11.0186 2.94374 10.677 3.16877 10.4664Z" fill="#325FFF"/>
<path d="M8.83123 9.158C9.05626 9.36866 9.05626 9.71021 8.83123 9.92087L5.71095 12.842C5.48593 13.0527 5.12109 13.0527 4.89607 12.842C4.67105 12.6313 4.67105 12.2898 4.89607 12.0791L8.01635 9.158C8.24138 8.94733 8.60621 8.94733 8.83123 9.158Z" fill="#325FFF"/>
</svg>
