<svg width="16" height="16" viewBox="0 0 16 16" fill="none" xmlns="http://www.w3.org/2000/svg">
<path fill-rule="evenodd" clip-rule="evenodd" d="M2 0C0.895431 0 0 0.895431 0 2V14C0 15.1046 0.895431 16 2 16H14C15.1046 16 16 15.1046 16 14V2C16 0.895431 15.1046 0 14 0H2ZM3.08333 2C2.48503 2 2 2.48503 2 3.08334V12.9167C2 13.515 2.48503 14 3.08334 14H12.9167C13.515 14 14 13.515 14 12.9167V3.08333C14 2.48503 13.515 2 12.9167 2H3.08333Z" fill="#C4C4C4"/>
<path d="M7 11.375V9.5V7.625C7 7.3125 7.44772 7 8 7C8.55229 7 9 7.3125 9 7.625V9.5V11.375C9 11.6875 8.55229 12 8 12C7.44772 12 7 11.6875 7 11.375Z" fill="#325FFF"/>
<path d="M8 4C7.44772 4 7 4.44772 7 5C7 5.55228 7.44772 6 8 6C8.55228 6 9 5.55228 9 5C9 4.44772 8.55228 4 8 4Z" fill="#325FFF"/>
</svg>
