<svg width="16" height="16" viewBox="0 0 16 16" fill="none" xmlns="http://www.w3.org/2000/svg">
<path fill-rule="evenodd" clip-rule="evenodd" d="M2 0C0.895431 0 0 0.895431 0 2V14C0 15.1046 0.895431 16 2 16H14C15.1046 16 16 15.1046 16 14V2C16 0.895431 15.1046 0 14 0H2ZM3.08333 2C2.48503 2 2 2.48503 2 3.08334V12.9167C2 13.515 2.48503 14 3.08334 14H12.9167C13.515 14 14 13.515 14 12.9167V3.08333C14 2.48503 13.515 2 12.9167 2H3.08333Z" fill="#C4C4C4"/>
<path d="M6 5.4034C6.1646 4.93548 6.4895 4.54091 6.91714 4.28958C7.34479 4.03825 7.84758 3.94638 8.33647 4.03024C8.82536 4.11409 9.2688 4.36827 9.58824 4.74775C9.90769 5.12722 10.0825 5.60751 10.0818 6.10354C10.0818 7.50381 8 9 8 9" stroke="#325FFF" stroke-width="1.40027" stroke-linecap="round" stroke-linejoin="round"/>
<path d="M8.03711 12.0044H8.04511" stroke="#325FFF" stroke-width="1.40027" stroke-linecap="round" stroke-linejoin="round"/>
</svg>
