<svg width="16" height="16" viewBox="0 0 16 16" fill="none" xmlns="http://www.w3.org/2000/svg">
<path d="M9.80672 0H4.97098C4.47232 0 4.06805 0.396517 4.06805 0.885609V7.58866H3.03672C2.53806 7.58866 2.13379 7.98518 2.13379 8.47427C2.13379 8.96337 2.53806 9.35988 3.03672 9.35988H4.06805V11.383H3.03672C2.53806 11.383 2.13379 11.7795 2.13379 12.2686C2.13379 12.7577 2.53806 13.1542 3.03672 13.1542H4.06805V15.1144C4.06805 15.6035 4.47232 16 4.97098 16C5.46964 16 5.87391 15.6035 5.87391 15.1144V13.1542H9.80672C10.3054 13.1542 10.7097 12.7577 10.7097 12.2686C10.7097 11.7795 10.3054 11.383 9.80672 11.383H5.87391V9.35988H9.80672C12.4377 9.35988 14.5782 7.26046 14.5782 4.67991C14.5782 2.0356 12.3821 0 9.80672 0ZM9.80672 7.58866H5.87391V1.77122H9.80672C11.4321 1.77122 12.7724 3.05712 12.7724 4.67997C12.7723 6.28387 11.442 7.58866 9.80672 7.58866Z" fill="#325FFF"/>
</svg>
