<svg width="16" height="16" viewBox="0 0 16 16" fill="none" xmlns="http://www.w3.org/2000/svg">
<path d="M5 0C3.89543 0 3 0.89543 3 2V4L5 3C5 2.44772 5.44772 2 6 2H13C13.5523 2 14 2.44772 14 3V10C14 10.5523 13.5523 11 13 11L11 13H14C15.1046 13 16 12.1046 16 11V2C16 0.895431 15.1046 0 14 0H5Z" fill="#325FFF"/>
<path fill-rule="evenodd" clip-rule="evenodd" d="M2 3C0.895431 3 0 3.89543 0 5V14C0 15.1046 0.89543 16 2 16H11C12.1046 16 13 15.1046 13 14V5C13 3.89543 12.1046 3 11 3H2ZM3 5C2.44772 5 2 5.44772 2 6V13C2 13.5523 2.44772 14 3 14H10C10.5523 14 11 13.5523 11 13V6C11 5.44772 10.5523 5 10 5H3Z" fill="#C4C4C4"/>
<path d="M3.16877 10.4664C3.39379 10.2557 3.75862 10.2557 3.98365 10.4664L5.69881 12.0721C5.92383 12.2827 5.92383 12.6243 5.69881 12.8349C5.47378 13.0456 5.10895 13.0456 4.88393 12.8349L3.16877 11.2292C2.94374 11.0186 2.94374 10.677 3.16877 10.4664Z" fill="#325FFF"/>
<path d="M8.83123 9.158C9.05626 9.36866 9.05626 9.71021 8.83123 9.92087L5.71095 12.842C5.48593 13.0527 5.12109 13.0527 4.89607 12.842C4.67105 12.6313 4.67105 12.2898 4.89607 12.0791L8.01635 9.158C8.24138 8.94733 8.60621 8.94733 8.83123 9.158Z" fill="#325FFF"/>
</svg>
