<svg width="16" height="16" viewBox="0 0 16 16" fill="none" xmlns="http://www.w3.org/2000/svg">
<rect width="16" height="2" rx="1" fill="#325FFF"/>
<rect y="14" width="16" height="2" rx="1" fill="#325FFF"/>
<path d="M10.5 7C10.7761 7 11 7.22386 11 7.5V11.5C11 11.7761 10.7761 12 10.5 12C10.2239 12 10 11.7761 10 11.5V7.5C10 7.22386 10.2239 7 10.5 7Z" fill="#C4C4C4"/>
<path d="M8.70711 9L10.8284 11.1213L10.1213 11.8284L8 9.70711L8.70711 9Z" fill="#C4C4C4"/>
<path d="M12.2071 9.08579L10.0858 11.2071L10.7929 11.9142L12.9142 9.79289L12.2071 9.08579Z" fill="#C4C4C4"/>
<path d="M5.5 9C5.77614 9 6 8.77614 6 8.5V4.5C6 4.22386 5.77614 4 5.5 4C5.22386 4 5 4.22386 5 4.5V8.5C5 8.77614 5.22386 9 5.5 9Z" fill="#C4C4C4"/>
<path d="M3.70711 7L5.82843 4.87868L5.12132 4.17157L3 6.29289L3.70711 7Z" fill="#C4C4C4"/>
<path d="M7.20711 6.91421L5.08579 4.79289L5.79289 4.08579L7.91421 6.20711L7.20711 6.91421Z" fill="#C4C4C4"/>
</svg>
