<svg width="16" height="14" viewBox="0 0 16 14" fill="none" xmlns="http://www.w3.org/2000/svg">
<path d="M14.0939 7.84131H11.7194C11.3742 7.84131 11.0944 8.12112 11.0944 8.46631C11.0944 8.81149 11.3742 9.09131 11.7194 9.09131H12.5855L9.58737 12.0894C9.34327 12.3335 9.34327 12.7292 9.58737 12.9732C9.83143 13.2173 10.2271 13.2174 10.4712 12.9733L13.4694 9.97518V10.8413C13.4694 11.1865 13.7492 11.4663 14.0944 11.4663C14.4396 11.4663 14.7194 11.1865 14.7194 10.8413V8.46631C14.7194 8.46621 14.7194 8.46612 14.7194 8.46603C14.7192 8.1264 14.4432 7.84106 14.0939 7.84131Z" fill="#444444"/>
<path d="M15.375 0.84375H11.6875C11.3423 0.84375 11.0625 1.12356 11.0625 1.46875V4.53125H8.00003C7.65488 4.53125 7.37503 4.81106 7.37503 5.15625V8.21875H4.31253C3.96734 8.21875 3.68753 8.49856 3.68753 8.84375V11.9062H0.625C0.279813 11.9062 0 12.1861 0 12.5312C0 12.8764 0.279813 13.1562 0.625 13.1562H4.31253C4.47828 13.1562 4.63728 13.0904 4.75447 12.9732C4.87169 12.856 4.93753 12.697 4.93753 12.5312L4.9375 9.46875H8.00003C8.16578 9.46875 8.32478 9.40291 8.44197 9.28569C8.55919 9.1685 8.62503 9.0095 8.62503 8.84375L8.625 5.78125H11.6875C11.8533 5.78125 12.0122 5.71541 12.1294 5.59819C12.2467 5.481 12.3125 5.322 12.3125 5.15625L12.3125 2.09375H15.375C15.7202 2.09375 16 1.81394 16 1.46875C16 1.12356 15.7202 0.84375 15.375 0.84375Z" fill="#444444"/>
</svg>
